<svg xmlns="http://www.w3.org/2000/svg" viewBox="0 0 960 280" width="960" height="280">
<title>Chem_Grid</title>
<defs><linearGradient id="word" x1="0" y1="0" x2="1" y2="1"><stop offset="0" stop-color="#9333EA"/><stop offset="1" stop-color="#9333EA"/></linearGradient></defs>
<g transform="translate(150,140.0) scale(1.08)"><defs>
<linearGradient id="bhub" x1="0" y1="0" x2="1" y2="1"><stop offset="0" stop-color="#818CF8"/><stop offset="1" stop-color="#4338CA"/></linearGradient>
<linearGradient id="bfastj" x1="0" y1="0" x2="1" y2="1"><stop offset="0" stop-color="#FDE047"/><stop offset="1" stop-color="#F59E0B"/></linearGradient>
<linearGradient id="bmint" x1="0" y1="0" x2="1" y2="1"><stop offset="0" stop-color="#67E8F9"/><stop offset="1" stop-color="#0891B2"/></linearGradient>
<linearGradient id="bdepconv" x1="0" y1="0" x2="1" y2="1"><stop offset="0" stop-color="#93C5FD"/><stop offset="1" stop-color="#2563EB"/></linearGradient>
<linearGradient id="bemis_geos" x1="0" y1="0" x2="1" y2="1"><stop offset="0" stop-color="#86EFAC"/><stop offset="1" stop-color="#16A34A"/></linearGradient>
<linearGradient id="bchem_grid" x1="0" y1="0" x2="1" y2="1"><stop offset="0" stop-color="#D8B4FE"/><stop offset="1" stop-color="#9333EA"/></linearGradient>
<linearGradient id="bsmvgear" x1="0" y1="0" x2="1" y2="1"><stop offset="0" stop-color="#FDBA74"/><stop offset="1" stop-color="#EA580C"/></linearGradient>
</defs>
<path d="M27.28,-82.63Q31.51,-85.07 35.73,-82.63L53.69,-72.26Q57.92,-69.82 57.92,-64.94L57.92,-44.20Q57.92,-39.32 53.69,-36.88L35.73,-26.51Q31.51,-24.07 27.28,-26.51L9.32,-36.88Q5.09,-39.32 5.09,-44.20L5.09,-64.94Q5.09,-69.82 9.32,-72.26Z" fill="#E8ECF2"/>
<g transform="translate(31.51,-54.57)" fill="none" stroke-linecap="round" stroke-linejoin="round" stroke="#FFFFFF" stroke-width="2.4"><circle r="4.6"/><line x1="7.50" y1="0.00" x2="11.00" y2="0.00"/><line x1="5.30" y1="5.30" x2="7.78" y2="7.78"/><line x1="0.00" y1="7.50" x2="0.00" y2="11.00"/><line x1="-5.30" y1="5.30" x2="-7.78" y2="7.78"/><line x1="-7.50" y1="0.00" x2="-11.00" y2="0.00"/><line x1="-5.30" y1="-5.30" x2="-7.78" y2="-7.78"/><line x1="-0.00" y1="-7.50" x2="-0.00" y2="-11.00"/><line x1="5.30" y1="-5.30" x2="7.78" y2="-7.78"/></g>
<path d="M58.79,-28.06Q63.01,-30.50 67.24,-28.06L85.20,-17.69Q89.43,-15.25 89.43,-10.37L89.43,10.37Q89.43,15.25 85.20,17.69L67.24,28.06Q63.01,30.50 58.79,28.06L40.82,17.69Q36.60,15.25 36.60,10.37L36.60,-10.37Q36.60,-15.25 40.82,-17.69Z" fill="#E8ECF2"/>
<g transform="translate(63.01,0.00)" fill="none" stroke-linecap="round" stroke-linejoin="round" stroke="#FFFFFF" stroke-width="2.4"><path d="M-11,-4.5 q4,-4 8,0 t8,0"/><path d="M-11,4.5 H8 M3,-0.5 L8.5,4.5 L3,9.5"/></g>
<path d="M27.28,26.51Q31.51,24.07 35.73,26.51L53.69,36.88Q57.92,39.32 57.92,44.20L57.92,64.94Q57.92,69.82 53.69,72.26L35.73,82.63Q31.51,85.07 27.28,82.63L9.32,72.26Q5.09,69.82 5.09,64.94L5.09,44.20Q5.09,39.32 9.32,36.88Z" fill="#E8ECF2"/>
<g transform="translate(31.51,54.57)" fill="none" stroke-linecap="round" stroke-linejoin="round" stroke="#FFFFFF" stroke-width="2.4"><path d="M0,-10 V5 M-5.5,-0.5 L0,5.5 L5.5,-0.5 M-10,10.5 H10"/></g>
<path d="M-35.73,26.51Q-31.51,24.07 -27.28,26.51L-9.32,36.88Q-5.09,39.32 -5.09,44.20L-5.09,64.94Q-5.09,69.82 -9.32,72.26L-27.28,82.63Q-31.51,85.07 -35.73,82.63L-53.69,72.26Q-57.92,69.82 -57.92,64.94L-57.92,44.20Q-57.92,39.32 -53.69,36.88Z" fill="#E8ECF2"/>
<g transform="translate(-31.51,54.57)" fill="none" stroke-linecap="round" stroke-linejoin="round" stroke="#FFFFFF" stroke-width="2.4"><path d="M-10,10.5 H10 M-4.5,6 V-7 M-9,-2.5 L-4.5,-8 L0,-2.5 M5.5,6 V-2 M1,2.5 L5.5,-3 L10,2.5"/></g>
<path d="M-67.24,-28.06Q-63.01,-30.50 -58.79,-28.06L-40.82,-17.69Q-36.60,-15.25 -36.60,-10.37L-36.60,10.37Q-36.60,15.25 -40.82,17.69L-58.79,28.06Q-63.01,30.50 -67.24,28.06L-85.20,17.69Q-89.43,15.25 -89.43,10.37L-89.43,-10.37Q-89.43,-15.25 -85.20,-17.69Z" fill="url(#bchem_grid)"/>
<g transform="translate(-63.01,0.00)" fill="none" stroke-linecap="round" stroke-linejoin="round" stroke="#fff" stroke-width="2.4"><rect x="-9" y="-9" width="18" height="18" rx="2"/><path d="M-3,-9 V9 M3,-9 V9 M-9,-3 H9 M-9,3 H9"/></g>
<path d="M-35.73,-82.63Q-31.51,-85.07 -27.28,-82.63L-9.32,-72.26Q-5.09,-69.82 -5.09,-64.94L-5.09,-44.20Q-5.09,-39.32 -9.32,-36.88L-27.28,-26.51Q-31.51,-24.07 -35.73,-26.51L-53.69,-36.88Q-57.92,-39.32 -57.92,-44.20L-57.92,-64.94Q-57.92,-69.82 -53.69,-72.26Z" fill="#E8ECF2"/>
<g transform="translate(-31.51,-54.57)" fill="none" stroke-linecap="round" stroke-linejoin="round" stroke="#FFFFFF" stroke-width="2.4"><polygon points="0.00,-9.50 8.23,-4.75 8.23,4.75 0.00,9.50 -8.23,4.75 -8.23,-4.75"/><circle r="4.4"/></g>
<path d="M-4.71,-31.28Q0.00,-34.00 4.71,-31.28L24.73,-19.72Q29.44,-17.00 29.44,-11.56L29.44,11.56Q29.44,17.00 24.73,19.72L4.71,31.28Q0.00,34.00 -4.71,31.28L-24.73,19.72Q-29.44,17.00 -29.44,11.56L-29.44,-11.56Q-29.44,-17.00 -24.73,-19.72Z" fill="#E8ECF2"/>
<g fill="none" stroke-linecap="round" stroke-linejoin="round" stroke="#FFFFFF" stroke-width="3.2"><path d="M-15,-8 q3.75,-5 7.5,0 t7.5,0 t7.5,0 t7.5,0"/><path d="M-15,0 q3.75,-5 7.5,0 t7.5,0 t7.5,0 t7.5,0"/><path d="M-15,8 q3.75,-5 7.5,0 t7.5,0 t7.5,0 t7.5,0"/></g></g>
<text x="296" y="128" font-family="'Inter','Segoe UI','Helvetica Neue',Helvetica,Arial,sans-serif" font-size="86" font-weight="800" letter-spacing="-2"><tspan fill="url(#word)">Chem_Grid</tspan></text>
<text x="300" y="172" font-family="'Inter','Segoe UI','Helvetica Neue',Helvetica,Arial,sans-serif" font-size="23" fill="#475569">Shared grid geometry for the JAX atmospheric-chemistry stack</text>
<rect x="300" y="202" width="70" height="30" rx="15" fill="#F8FAFC" stroke="#E2E8F0"/><circle cx="316" cy="217" r="5" fill="#9333EA"/><text x="327" y="222" font-family="'JetBrains Mono','SFMono-Regular',Consolas,'Liberation Mono',Menlo,monospace" font-size="15" fill="#0F172A">Grid</text>
<rect x="380" y="202" width="187" height="30" rx="15" fill="#F8FAFC" stroke="#E2E8F0"/><circle cx="396" cy="217" r="5" fill="#9333EA"/><text x="407" y="222" font-family="'JetBrains Mono','SFMono-Regular',Consolas,'Liberation Mono',Menlo,monospace" font-size="15" fill="#0F172A">Lambert conformal</text>
<rect x="577" y="202" width="160" height="30" rx="15" fill="#F8FAFC" stroke="#E2E8F0"/><circle cx="593" cy="217" r="5" fill="#9333EA"/><text x="604" y="222" font-family="'JetBrains Mono','SFMono-Regular',Consolas,'Liberation Mono',Menlo,monospace" font-size="15" fill="#0F172A">vertical order</text>
<rect x="747" y="202" width="124" height="30" rx="15" fill="#F8FAFC" stroke="#E2E8F0"/><circle cx="763" cy="217" r="5" fill="#9333EA"/><text x="774" y="222" font-family="'JetBrains Mono','SFMono-Regular',Consolas,'Liberation Mono',Menlo,monospace" font-size="15" fill="#0F172A">regridding</text>
</svg>
